<mxfile host="app.diagrams.net" modified="2023-05-15T21:41:14.609Z" agent="Mozilla/5.0 (Windows NT 10.0; Win64; x64) AppleWebKit/537.36 (KHTML, like Gecko) Chrome/113.0.0.0 Safari/537.36" etag="JAesYYTmV_VzOPeNviDr" version="21.3.0" type="device">
  <diagram name="Page-1" id="pldhK5oKOvPfqw3DDmJA">
    <mxGraphModel dx="1434" dy="764" grid="1" gridSize="10" guides="1" tooltips="1" connect="1" arrows="1" fold="1" page="1" pageScale="1" pageWidth="1100" pageHeight="850" background="#ffffff" math="0" shadow="0">
      <root>
        <mxCell id="0" />
        <mxCell id="1" parent="0" />
        <mxCell id="abvXYZA1BCJk_wj-gQqE-22" value="" style="rounded=0;whiteSpace=wrap;html=1;gradientColor=none;fillColor=none;" parent="1" vertex="1">
          <mxGeometry width="790" height="320" as="geometry" />
        </mxCell>
        <mxCell id="abvXYZA1BCJk_wj-gQqE-1" value="Backend" style="shape=umlFrame;whiteSpace=wrap;html=1;pointerEvents=0;" parent="1" vertex="1">
          <mxGeometry x="20" y="20" width="360" height="280" as="geometry" />
        </mxCell>
        <mxCell id="abvXYZA1BCJk_wj-gQqE-6" style="rounded=0;orthogonalLoop=1;jettySize=auto;html=1;exitX=0;exitY=0.5;exitDx=0;exitDy=0;entryX=1;entryY=0.5;entryDx=0;entryDy=0;edgeStyle=orthogonalEdgeStyle;" parent="1" source="abvXYZA1BCJk_wj-gQqE-2" target="abvXYZA1BCJk_wj-gQqE-3" edge="1">
          <mxGeometry relative="1" as="geometry" />
        </mxCell>
        <mxCell id="abvXYZA1BCJk_wj-gQqE-7" style="edgeStyle=orthogonalEdgeStyle;rounded=0;orthogonalLoop=1;jettySize=auto;html=1;exitX=0;exitY=0.5;exitDx=0;exitDy=0;entryX=1;entryY=0.5;entryDx=0;entryDy=0;" parent="1" source="abvXYZA1BCJk_wj-gQqE-2" target="abvXYZA1BCJk_wj-gQqE-4" edge="1">
          <mxGeometry relative="1" as="geometry" />
        </mxCell>
        <mxCell id="abvXYZA1BCJk_wj-gQqE-2" value="HTTP server" style="rounded=1;whiteSpace=wrap;html=1;" parent="1" vertex="1">
          <mxGeometry x="240" y="100" width="120" height="60" as="geometry" />
        </mxCell>
        <mxCell id="abvXYZA1BCJk_wj-gQqE-8" style="edgeStyle=orthogonalEdgeStyle;rounded=0;orthogonalLoop=1;jettySize=auto;html=1;exitX=0;exitY=0.5;exitDx=0;exitDy=0;entryX=0;entryY=0.5;entryDx=0;entryDy=0;" parent="1" source="abvXYZA1BCJk_wj-gQqE-3" target="abvXYZA1BCJk_wj-gQqE-5" edge="1">
          <mxGeometry relative="1" as="geometry" />
        </mxCell>
        <mxCell id="abvXYZA1BCJk_wj-gQqE-3" value="Language server for Rubik&#39;s cube state" style="rounded=1;whiteSpace=wrap;html=1;" parent="1" vertex="1">
          <mxGeometry x="60" y="60" width="120" height="60" as="geometry" />
        </mxCell>
        <mxCell id="abvXYZA1BCJk_wj-gQqE-9" style="edgeStyle=orthogonalEdgeStyle;rounded=0;orthogonalLoop=1;jettySize=auto;html=1;exitX=0;exitY=0.5;exitDx=0;exitDy=0;entryX=0;entryY=0.5;entryDx=0;entryDy=0;" parent="1" source="abvXYZA1BCJk_wj-gQqE-4" target="abvXYZA1BCJk_wj-gQqE-5" edge="1">
          <mxGeometry relative="1" as="geometry">
            <mxPoint x="510" y="570" as="targetPoint" />
            <Array as="points">
              <mxPoint x="50" y="170" />
              <mxPoint x="50" y="250" />
            </Array>
          </mxGeometry>
        </mxCell>
        <mxCell id="abvXYZA1BCJk_wj-gQqE-4" value="Language server for algorithms" style="rounded=1;whiteSpace=wrap;html=1;" parent="1" vertex="1">
          <mxGeometry x="60" y="140" width="120" height="60" as="geometry" />
        </mxCell>
        <mxCell id="abvXYZA1BCJk_wj-gQqE-10" style="edgeStyle=orthogonalEdgeStyle;rounded=0;orthogonalLoop=1;jettySize=auto;html=1;exitX=1;exitY=0.5;exitDx=0;exitDy=0;entryX=0.5;entryY=1;entryDx=0;entryDy=0;" parent="1" source="abvXYZA1BCJk_wj-gQqE-5" target="abvXYZA1BCJk_wj-gQqE-2" edge="1">
          <mxGeometry relative="1" as="geometry" />
        </mxCell>
        <mxCell id="abvXYZA1BCJk_wj-gQqE-5" value="Executor" style="rounded=1;whiteSpace=wrap;html=1;" parent="1" vertex="1">
          <mxGeometry x="130" y="220" width="120" height="60" as="geometry" />
        </mxCell>
        <mxCell id="abvXYZA1BCJk_wj-gQqE-12" value="Frontend" style="shape=umlFrame;whiteSpace=wrap;html=1;pointerEvents=0;" parent="1" vertex="1">
          <mxGeometry x="430" y="20" width="340" height="280" as="geometry" />
        </mxCell>
        <mxCell id="abvXYZA1BCJk_wj-gQqE-13" value="Visualizer" style="rounded=1;whiteSpace=wrap;html=1;" parent="1" vertex="1">
          <mxGeometry x="630" y="100" width="120" height="60" as="geometry" />
        </mxCell>
        <mxCell id="abvXYZA1BCJk_wj-gQqE-20" style="edgeStyle=orthogonalEdgeStyle;rounded=0;orthogonalLoop=1;jettySize=auto;html=1;exitX=0;exitY=0.5;exitDx=0;exitDy=0;entryX=0.5;entryY=1;entryDx=0;entryDy=0;" parent="1" source="abvXYZA1BCJk_wj-gQqE-14" target="abvXYZA1BCJk_wj-gQqE-15" edge="1">
          <mxGeometry relative="1" as="geometry">
            <Array as="points">
              <mxPoint x="510" y="280" />
            </Array>
          </mxGeometry>
        </mxCell>
        <mxCell id="abvXYZA1BCJk_wj-gQqE-14" value="Text editor" style="rounded=1;whiteSpace=wrap;html=1;" parent="1" vertex="1">
          <mxGeometry x="450" y="220" width="120" height="60" as="geometry" />
        </mxCell>
        <mxCell id="abvXYZA1BCJk_wj-gQqE-21" style="edgeStyle=orthogonalEdgeStyle;rounded=0;orthogonalLoop=1;jettySize=auto;html=1;exitX=1;exitY=0.5;exitDx=0;exitDy=0;" parent="1" source="abvXYZA1BCJk_wj-gQqE-15" target="abvXYZA1BCJk_wj-gQqE-13" edge="1">
          <mxGeometry relative="1" as="geometry" />
        </mxCell>
        <mxCell id="abvXYZA1BCJk_wj-gQqE-15" value="HTTP client&lt;br&gt;" style="rounded=1;whiteSpace=wrap;html=1;" parent="1" vertex="1">
          <mxGeometry x="450" y="100" width="120" height="60" as="geometry" />
        </mxCell>
        <mxCell id="abvXYZA1BCJk_wj-gQqE-16" value="" style="rounded=0;orthogonalLoop=1;jettySize=auto;html=1;endArrow=none;endFill=0;sketch=0;sourcePerimeterSpacing=0;targetPerimeterSpacing=0;exitX=1;exitY=0.5;exitDx=0;exitDy=0;" parent="1" source="abvXYZA1BCJk_wj-gQqE-2" target="abvXYZA1BCJk_wj-gQqE-18" edge="1">
          <mxGeometry relative="1" as="geometry">
            <mxPoint x="530" y="365" as="sourcePoint" />
          </mxGeometry>
        </mxCell>
        <mxCell id="abvXYZA1BCJk_wj-gQqE-17" value="" style="rounded=0;orthogonalLoop=1;jettySize=auto;html=1;endArrow=halfCircle;endFill=0;entryX=0.5;entryY=0.5;endSize=6;strokeWidth=1;sketch=0;exitX=0;exitY=0.5;exitDx=0;exitDy=0;" parent="1" source="abvXYZA1BCJk_wj-gQqE-15" target="abvXYZA1BCJk_wj-gQqE-18" edge="1">
          <mxGeometry relative="1" as="geometry">
            <mxPoint x="570" y="365" as="sourcePoint" />
          </mxGeometry>
        </mxCell>
        <mxCell id="abvXYZA1BCJk_wj-gQqE-18" value="" style="ellipse;whiteSpace=wrap;html=1;align=center;aspect=fixed;resizable=0;points=[];outlineConnect=0;sketch=0;" parent="1" vertex="1">
          <mxGeometry x="400" y="125" width="10" height="10" as="geometry" />
        </mxCell>
      </root>
    </mxGraphModel>
  </diagram>
</mxfile>
